<?xml version="1.0" standalone="no"?>
<!DOCTYPE svg PUBLIC "-//W3C//DTD SVG 20010904//EN"
 "http://www.w3.org/TR/2001/REC-SVG-20010904/DTD/svg10.dtd">
<svg version="1.0" xmlns="http://www.w3.org/2000/svg"
 width="413.000000pt" height="413.000000pt" viewBox="0 0 413.000000 413.000000"
 preserveAspectRatio="xMidYMid meet">

<g transform="translate(0.000000,413.000000) scale(0.100000,-0.100000)"
fill="#000000" stroke="none">
<path d="M520 2065 l0 -1545 1290 0 1290 0 0 125 0 125 130 0 130 0 0 130 0
130 125 0 125 0 0 515 0 515 -125 0 -125 0 0 130 0 130 125 0 125 0 0 390 0
390 -125 0 -125 0 0 130 0 130 -130 0 -130 0 0 125 0 125 -1290 0 -1290 0 0
-1545z m2320 515 l0 -260 -775 0 -775 0 0 260 0 260 775 0 775 0 0 -260z m0
-1030 l0 -260 -775 0 -775 0 0 260 0 260 775 0 775 0 0 -260z"/>
</g>
</svg>
