<svg xmlns="http://www.w3.org/2000/svg" width="550.667" height="550.667" preserveAspectRatio="xMidYMid meet" version="1.0" viewBox="0 0 413 413"><g fill="#000" stroke="none"><path d="M520 2065 l0 -1545 1290 0 1290 0 0 125 0 125 130 0 130 0 0 130 0 130 125 0 125 0 0 515 0 515 -125 0 -125 0 0 130 0 130 125 0 125 0 0 390 0 390 -125 0 -125 0 0 130 0 130 -130 0 -130 0 0 125 0 125 -1290 0 -1290 0 0 -1545z m2320 515 l0 -260 -775 0 -775 0 0 260 0 260 775 0 775 0 0 -260z m0 -1030 l0 -260 -775 0 -775 0 0 260 0 260 775 0 775 0 0 -260z" transform="translate(0.000000,413.000000) scale(0.100000,-0.100000)"/></g></svg>